<svg id="图层_1" data-name="图层 1" xmlns="http://www.w3.org/2000/svg" xmlns:xlink="http://www.w3.org/1999/xlink" viewBox="0 0 269.63 283.41"><defs><style>.cls-1{fill:none;}.cls-2{clip-path:url(#clip-path);}.cls-3{fill:#411a3e;}.cls-4{fill:#f8d8c6;}.cls-5{fill:#fff;}.cls-6{fill:#e73b62;opacity:0.71;}.cls-7{fill:#f0c329;}.cls-8{fill:#f5c42e;}.cls-9{fill:#e94d6e;opacity:0.47;}</style><clipPath id="clip-path"><circle class="cls-1" cx="156.56" cy="131.7" r="131.7"/></clipPath></defs><title>SVG</title><g class="cls-2"><rect class="cls-3" x="115.3" y="173.53" width="44.78" height="92.43"/><path class="cls-4" d="M240.34,261.49a3.45,3.45,0,0,0-1.25-6.18c-10.08-2.2-21.2-5.78-28.7-10.81-9.79-6.56-11.22-15.05-11.73-25.68-.42-8.53-.45-17.67,2.49-25.89l-41.89-23.19-7.14,6a190,190,0,0,1,3.63,35.89,30.07,30.07,0,0,1-14.35,25.52c-8.4,5.09-21.53,5.56-41.57,4.35l35.74,94.65Z"/><path class="cls-3" d="M135,338.08,98,240.19l1.88.12c19.06,1.15,32.55.85,40.85-4.18a29,29,0,0,0,13.77-24.49A188.73,188.73,0,0,0,150.92,176l-.13-.7,8.33-7,43.52,24.09-.34,1c-2.83,7.91-2.84,16.89-2.43,25.42.49,10.09,1.63,18.31,11.2,24.73,8.58,5.75,21.4,9.13,28.28,10.63a4.67,4.67,0,0,1,1.7,8.37Zm-33.36-95.23,34.52,91.41L239.64,260.5a2.24,2.24,0,0,0-.81-4c-7.05-1.54-20.2-5-29.12-11-10.49-7-11.77-16.22-12.27-26.63-.41-8.43-.41-17.32,2.23-25.38l-40.26-22.29-6,5A190.66,190.66,0,0,1,157,211.66,31.45,31.45,0,0,1,142,238.21C133.46,243.4,120.18,243.89,101.63,242.85Z"/><ellipse class="cls-3" cx="113.3" cy="133.52" rx="22.27" ry="20.76"/><ellipse class="cls-3" cx="118.63" cy="185.24" rx="22.27" ry="20.76"/><ellipse class="cls-3" cx="212.83" cy="126.82" rx="16.02" ry="20.76"/><ellipse class="cls-3" cx="186.9" cy="99.93" rx="28.28" ry="28.99" transform="translate(75.21 280.05) rotate(-86.33)"/><path class="cls-4" d="M210.71,129.13s10.25-2,4.56,25.26L213,156.12l-4.32-27Z"/><path class="cls-3" d="M212.11,158.32l-4.87-30.46,3.4,0a5.53,5.53,0,0,1,4.52,1.72c3.58,3.62,4,12,1.3,25l-.09.45Zm-2-28,3.77,23.58.3-.22c3.16-15.45.94-20.6-.69-22.3a3.05,3.05,0,0,0-2.56-1.07l-.23,0Z"/><path class="cls-4" d="M196.59,94.86s12.93,6.11,14.67,41.25c.83,11,5.46,20.82,6.46,31.62a63,63,0,0,1-3,26,59.61,59.61,0,0,1-5.22,11.47c-1.79,2.95-4,6.53-7.59,7.41-6.23,1.51-13.22.53-19.53,0-9.34-.85-19-3.2-27.19-7.93A60.41,60.41,0,0,1,139.58,191a125.07,125.07,0,0,1-18.27-30.16c-.69-1.56-1.35-3.13-2-4.72,0,0-6.28-25.26,27.66-45.17,0,0,22.76-17.61,49.58-16.09"/><path class="cls-3" d="M194.28,214.62c-3.21,0-6.45-.31-9.64-.62l-2.4-.23c-10.78-1-20.09-3.69-27.69-8.09a60.82,60.82,0,0,1-15.9-13.9,125.77,125.77,0,0,1-18.45-30.45c-.84-1.9-1.45-3.37-2-4.77l0-.14c-.07-.27-1.62-6.75,1.12-15.77,2.49-8.23,9.21-20.24,27-30.72,1.62-1.23,23.81-17.79,50.33-16.29h.24l.22.11c.55.26,13.61,6.83,15.36,42.29a88.6,88.6,0,0,0,3.25,16.06,93.42,93.42,0,0,1,3.21,15.5,64.29,64.29,0,0,1-3.09,26.5,60,60,0,0,1-5.33,11.71c-1.77,2.93-4.2,7-8.34,8A33.58,33.58,0,0,1,194.28,214.62Zm-73.76-58.85c.51,1.33,1.1,2.75,1.9,4.57a123.77,123.77,0,0,0,18.09,29.87,58.45,58.45,0,0,0,15.26,13.36c7.19,4.16,16.41,6.85,26.69,7.77l2.42.23c5.64.55,11.47,1.12,16.71-.16,3.16-.77,5.2-4.14,6.83-6.85a57.79,57.79,0,0,0,5.12-11.24,61.94,61.94,0,0,0,3-25.48,91.79,91.79,0,0,0-3.15-15.1A91.09,91.09,0,0,1,210,136.2c-1.55-31.52-12.27-39.2-13.8-40.14-25.94-1.33-48.27,15.68-48.49,15.85l-.13.09C115.47,130.86,120.13,154.06,120.52,155.77Z"/><path class="cls-3" d="M175.18,145.51a33.23,33.23,0,0,0-9.44-1.87,32.34,32.34,0,0,0-4.72.15,29.12,29.12,0,0,0-4.63.8,33,33,0,0,0-4.48,1.47c-1.51.56-3,1.22-4.48,1.84s-3,1.31-4.39,2a24.72,24.72,0,0,0-4.14,2.56,15.8,15.8,0,0,1,3.5-3.57,37.1,37.1,0,0,1,4.18-2.74c1.43-.85,2.93-1.56,4.43-2.27.77-.34,1.49-.68,2.34-1s1.62-.54,2.46-.73a28.61,28.61,0,0,1,5.05-.74l1.27,0,1.28,0a21.47,21.47,0,0,1,2.53.26A20.74,20.74,0,0,1,175.18,145.51Z"/><path class="cls-3" d="M190,151c.86,2,1.7,4.07,2.67,6a29.15,29.15,0,0,0,1.56,2.8,18.17,18.17,0,0,0,1.92,2.49c.71.81,1.49,1.59,2.22,2.44a15.13,15.13,0,0,1,2,2.78,5.49,5.49,0,0,1,.6,1.72,3.46,3.46,0,0,1-.21,1.86,5,5,0,0,1-2.52,2.29,5.39,5.39,0,0,0,1.81-2.54,3.42,3.42,0,0,0-.72-2.71,53.18,53.18,0,0,0-4.39-4.76,15.31,15.31,0,0,1-2.07-2.76,19.14,19.14,0,0,1-1.44-3.08A23.39,23.39,0,0,1,190,151Z"/><path class="cls-3" d="M185,176.46c.46.06.87.23,1.29.29a8.93,8.93,0,0,0,1.26.11,15.3,15.3,0,0,0,2.52-.21c.85-.11,1.69-.29,2.55-.45s1.72-.34,2.63-.44a12.32,12.32,0,0,1-2.4,1.22c-.42.17-.86.29-1.29.43s-.88.21-1.34.27a8.52,8.52,0,0,1-2.76,0,5.61,5.61,0,0,1-1.33-.44A6.43,6.43,0,0,1,185,176.46Z"/><path class="cls-3" d="M193.31,144.22a9.31,9.31,0,0,1,2-3.56,13.64,13.64,0,0,1,3.14-2.67,16,16,0,0,1,3.78-1.62,19.25,19.25,0,0,1,2-.44c.68-.07,1.35-.14,2-.17-.65.22-1.31.36-1.94.56s-1.28.4-1.89.65a19.6,19.6,0,0,0-1.82.79,16.92,16.92,0,0,0-4.84,3.33A14.13,14.13,0,0,0,193.31,144.22Z"/><path class="cls-3" d="M173.46,151.67a18.2,18.2,0,0,0-5.11-.74,23.53,23.53,0,0,0-5.09.53,24.61,24.61,0,0,0-2.47.7c-.4.14-.82.25-1.21.42l-1.19.49c-.81.3-1.55.75-2.34,1.12s-1.5.86-2.28,1.27c.67-.56,1.36-1.09,2.07-1.61s1.48-1,2.28-1.34a20.76,20.76,0,0,1,5-1.84,18.44,18.44,0,0,1,5.29-.36,16.62,16.62,0,0,1,2.62.42A12,12,0,0,1,173.46,151.67Z"/><path class="cls-3" d="M193.31,147.83a12.83,12.83,0,0,1,2.82-4.26,16.25,16.25,0,0,1,4.15-3.1,13.34,13.34,0,0,1,5-1.46,10.25,10.25,0,0,1,5.09.84,35.22,35.22,0,0,0-4.74,1,25.94,25.94,0,0,0-4.26,1.75,44,44,0,0,0-4,2.39C196,145.91,194.71,146.84,193.31,147.83Z"/><path class="cls-3" d="M197.72,150.73q1.69-.16,3.3-.39a24.92,24.92,0,0,0,3.16-.66,15.48,15.48,0,0,0,2.93-1.18,13.93,13.93,0,0,0,2.59-2,6.58,6.58,0,0,1-2.06,2.77,9.68,9.68,0,0,1-3.13,1.56,12.07,12.07,0,0,1-3.42.43A10.39,10.39,0,0,1,197.72,150.73Z"/><path class="cls-3" d="M146.07,165.69a28.92,28.92,0,0,1,6.13-6.17,34.43,34.43,0,0,1,7.59-4.43,24,24,0,0,1,8.67-1.93,14.37,14.37,0,0,1,8.45,2.3,20.88,20.88,0,0,0-8.3-.4,34.37,34.37,0,0,0-7.89,2.28,67.57,67.57,0,0,0-7.46,3.75C150.83,162.51,148.45,164,146.07,165.69Z"/><path class="cls-3" d="M172.32,159a10.93,10.93,0,0,1-2.74,3.53A16,16,0,0,1,165.8,165a17.59,17.59,0,0,1-4.3,1.34,18.55,18.55,0,0,1-2.23.25c-.74,0-1.49,0-2.23-.07.72-.22,1.44-.34,2.15-.53l1.05-.28a9.49,9.49,0,0,0,1-.3l1-.32c.34-.11.67-.25,1-.37.68-.22,1.32-.54,2-.82a26.6,26.6,0,0,0,3.7-2.12A22.4,22.4,0,0,0,172.32,159Z"/><path class="cls-3" d="M198.62,143.82s.38,6.26,3.23,7.08,6.84-3.07,6.84-3.07.56-6.55-3.18-8Z"/><path class="cls-3" d="M168.26,154.39c.4,0,2.12,4.93,0,8.54l-5.71,2.76s-3.08-.42-6.09-6.86Z"/><path class="cls-3" d="M119.37,93.35c-10.47-26-5.78-55.34,1.45-65.66a36.74,36.74,0,0,1,25.87-15.4,38,38,0,0,1,29.63,9.47c9.51,8.5,13,20.83,9.87,34.73C183.14,70,174.94,80.93,171.56,85L157.19,73.08c7.15-8.61,17.74-27.51,6.68-37.4a19.28,19.28,0,0,0-15-4.84,17.82,17.82,0,0,0-12.71,7.57c-2.87,4.09-8.14,26.29.58,48Z"/><path class="cls-3" d="M91.86,120.89c-28.47-7.59-44.18-35-41-55.86,2.6-16.89,20.25-30.21,38.53-29.1,20.22,1.23,34.62,14.59,42.81,39.71l-17.76,5.79C106.93,58.33,95.91,55,88.28,54.57c-8.62-.52-17.81,5.94-18.93,13.29-1.93,12.56,9.34,30.19,27.32,35Z"/><path class="cls-3" d="M190.92,138.47a15,15,0,0,1,1.43-6.21,14.78,14.78,0,0,1,3.93-5.25,12.07,12.07,0,0,1,12.41-2,25.65,25.65,0,0,0-5.94,1.11,15.17,15.17,0,0,0-4.91,2.77,21.82,21.82,0,0,0-3.83,4.32A45.74,45.74,0,0,0,190.92,138.47Z"/><ellipse class="cls-3" cx="179.06" cy="83.71" rx="20.66" ry="26.74" transform="translate(-10.16 140.86) rotate(-41.86)"/><circle class="cls-3" cx="160.08" cy="105.29" r="19.55"/><path class="cls-3" d="M157.37,55.47c-19.64-.85-82.38,25.29-80.22,73,.79,17.32,11,31.89,26.28,32.55a26.13,26.13,0,0,0,20.47-8.92c12.48-.43,22.64-9.3,23.13-20.61a19.48,19.48,0,0,0-1-7.08,20.82,20.82,0,0,0,12.83-12.34c18.77-.66,34-13.44,34.7-29.79C194.3,65,177.66,56.34,157.37,55.47Z"/><ellipse class="cls-3" cx="168" cy="106.69" rx="35.07" ry="20.69" transform="translate(-25.58 60.5) rotate(-19)"/><circle class="cls-5" cx="205.95" cy="145.29" r="1.34"/><circle class="cls-5" cx="165.95" cy="159.76" r="1.34"/><ellipse class="cls-3" cx="106.08" cy="171.03" rx="23" ry="27.3"/><path class="cls-4" d="M60.87,178.88l16.61-18.94L89.4,148.05l10.71,1.41,6.14,2.64-.48,12s-2,7.21-3,9.62-8.15,13.64-8.15,13.64l-11.89,4.48-12.37-1.94-8.37-2Z"/><path class="cls-4" d="M104.15,165.74s14.49.56,33.6-5.93c.95-.32,2.16,1,2,2-.65,3.65-5.62,11-34.58,12.54"/><path class="cls-3" d="M105.21,175.54l-.13-2.44c28.6-1.52,32.92-8.57,33.45-11.53a1,1,0,0,0-.46-.58c-19.07,6.46-33.37,6-34,6l.1-2.44c.15,0,14.51.46,33.16-5.86a2.55,2.55,0,0,1,2.46.59,3.07,3.07,0,0,1,1.11,2.75C140.14,166.39,134.46,174,105.21,175.54Z"/><path class="cls-4" d="M108.22,161.46s27.26-25.27,19.75-32.1a1.5,1.5,0,0,0-2.24.27c-2.33,3.38-9.34,13.25-15.79,19.23,0,0-2.66-6.52-10.83.17"/><path class="cls-3" d="M109.05,162.35l-1.65-1.79c5.76-5.34,20.69-20.78,20.66-28a2.94,2.94,0,0,0-.91-2.29.27.27,0,0,0-.21-.07.35.35,0,0,0-.21.13c-2.65,3.86-9.52,13.47-16,19.43l-1.3,1.2-.66-1.63a3.64,3.64,0,0,0-2.33-2c-1.7-.42-4,.5-6.6,2.64l-1.54-1.88c3.3-2.71,6.25-3.75,8.76-3.12a5.8,5.8,0,0,1,3.07,2c6.14-6,12.63-15.22,14.55-18a2.71,2.71,0,0,1,2-1.16,2.66,2.66,0,0,1,2.12.68,5.32,5.32,0,0,1,1.71,4.08C130.54,142.32,109.93,161.54,109.05,162.35Z"/><path class="cls-4" d="M110.51,152s.18,3.08-1.79,9c0,0-8.68,9.72-13.25,12.26,0,0-4.59,1.12-2.19-5,0,0,2.33-7.62,7.52-11.8"/><path class="cls-3" d="M110.51,152a15,15,0,0,1,.14,2.33c0,.78,0,1.56-.11,2.34a41,41,0,0,1-.67,4.67h0l-.05.2-.19.22c-2,2.27-4.15,4.46-6.34,6.58q-1.64,1.6-3.39,3.11a25.08,25.08,0,0,1-3.84,2.83h0l-.14.08-.17,0a4.9,4.9,0,0,1-1.24.1,3.59,3.59,0,0,1-1.31-.3,2.83,2.83,0,0,1-1.19-1,3.25,3.25,0,0,1-.53-1.32,5.67,5.67,0,0,1,.17-2.26,13.53,13.53,0,0,1,.64-1.89l0,.08a25.53,25.53,0,0,1,1.49-3.36,32.65,32.65,0,0,1,1.86-3.13,19.53,19.53,0,0,1,2.3-2.82,13.53,13.53,0,0,1,2.88-2.19l0,0a33.91,33.91,0,0,0-2.12,2.81c-.64,1-1.24,2-1.79,3a30.56,30.56,0,0,0-1.47,3.12c-.43,1.06-.81,2.17-1.12,3.22l0,.07a12.57,12.57,0,0,0-.43,1.59,3.5,3.5,0,0,0,0,1.35c.08.36.16.4.36.5a2.12,2.12,0,0,0,1,0l-.31.12h0a24,24,0,0,0,3.43-2.55c1.12-1,2.22-2,3.28-3,2.14-2.07,4.22-4.25,6.22-6.45l-.25.42h0a40.32,40.32,0,0,0,1.78-4.16c.26-.71.5-1.43.7-2.17A14.13,14.13,0,0,0,110.51,152Z"/><path class="cls-4" d="M90,151.68c-9.72,12-7.76,14.22-7.76,14.22,1.09,3.16,9.42-4.81,9.42-4.81,4.57-3.1,5.86-5.55,5.86-5.55l1.08-3.81c1.93-7.08-.21-8.71-.21-8.71s-3.77-5.41-13.8,4.68l-9.35,10.37a11.35,11.35,0,0,1-2,1.26,67.31,67.31,0,0,0-5.77,4.47,111.32,111.32,0,0,0-13.72,14.08C51.86,180.18,7,192.1,3.55,202.72l-.13.41,5.63,35.65s39-34.73,66.34-43.46"/><path class="cls-3" d="M90,151.68c-.65,1.25-1.37,2.44-2,3.63-.37.59-.7,1.19-1.05,1.78s-.68,1.19-1,1.78c-.66,1.18-1.27,2.38-1.8,3.57a12.39,12.39,0,0,0-.62,1.76,4.34,4.34,0,0,0-.15.79c0,.13,0,.21,0,.29s0,.07,0,.05h0l0-.06,0,0a1.25,1.25,0,0,0-.09-.12l.23.39h0c0,.06,0,0-.07-.05s-.09,0,0,0a2.91,2.91,0,0,0,.92-.27,13.63,13.63,0,0,0,2.27-1.36c.75-.53,1.48-1.11,2.2-1.72s1.44-1.23,2.1-1.86l.08-.07.08-.06A26.79,26.79,0,0,0,94,157.69a19,19,0,0,0,1.35-1.34c.21-.24.41-.48.59-.72a5.87,5.87,0,0,0,.46-.66l-.09.24.88-3.12a29.55,29.55,0,0,0,.73-3,14.34,14.34,0,0,0,.21-3,5.53,5.53,0,0,0-.2-1.33,3.18,3.18,0,0,0-.2-.55,1.76,1.76,0,0,0-.12-.2l0-.07,0,0-.26-.28-.14-.14c-.08-.06-.15-.13-.24-.19a3.76,3.76,0,0,0-.55-.32,3.84,3.84,0,0,0-1.33-.27,7.1,7.1,0,0,0-3,.71,22.2,22.2,0,0,0-5.59,4c-.43.41-.83.78-1.24,1.23l-1.22,1.35-2.44,2.7-4.88,5.41-.61.67a4.09,4.09,0,0,1-1,.79c-.31.18-.59.33-.84.46a5.54,5.54,0,0,0-.66.42c-1,.67-1.93,1.39-2.87,2.12-1.88,1.48-3.7,3.07-5.46,4.7a109,109,0,0,0-9.93,10.46l-.58.7-.07.08a.7.7,0,0,1-.12.14l-.2.19-.15.12a5.75,5.75,0,0,1-.53.32,18.35,18.35,0,0,1-1.78.81c-1.16.48-2.3.9-3.45,1.32l-6.89,2.45C37,185.56,32.47,187.2,28,189a135.8,135.8,0,0,0-13.19,5.9,46.65,46.65,0,0,0-6.06,3.7,17.47,17.47,0,0,0-2.56,2.25,8,8,0,0,0-1,1.27,5.84,5.84,0,0,0-.35.65l-.12.32-.14.43,0-.56,5.63,35.65h0l-2-.72c2.48-2.26,5-4.41,7.58-6.55S21,227.08,23.59,225q7.86-6.18,16.13-11.85c5.52-3.74,11.16-7.33,17-10.53,2.93-1.62,5.92-3.13,9-4.5a39.32,39.32,0,0,1,4.72-1.76c.8-.24,1.61-.46,2.44-.65s1.65-.32,2.49-.42c-3,1.64-5.89,3.09-8.84,4.57s-5.87,3-8.71,4.67c-5.7,3.32-11.24,6.95-16.65,10.76s-10.71,7.77-15.93,11.84-10.38,8.26-15.4,12.53l-1.69,1.44L7.85,239h0L2.22,203.32,2.17,203l.09-.27.14-.44.2-.53a8,8,0,0,1,.51-1,9.72,9.72,0,0,1,1.24-1.63,19.86,19.86,0,0,1,2.9-2.57,48.51,48.51,0,0,1,6.38-3.91,142.44,142.44,0,0,1,13.44-6c4.55-1.79,9.14-3.45,13.73-5.07l6.86-2.44c1.14-.42,2.28-.83,3.37-1.28.54-.22,1.09-.46,1.54-.7a2,2,0,0,0,.25-.15l0,0s0,0,0,0l0,0,.07-.09.59-.71a113.8,113.8,0,0,1,10.14-10.69c1.81-1.67,3.67-3.28,5.61-4.82q1.45-1.16,3-2.22c.22-.15.6-.4.88-.55s.54-.28.75-.41a2,2,0,0,0,.44-.33l.62-.68,4.89-5.43,2.45-2.71,1.23-1.36c.41-.45.9-.9,1.35-1.33a24.2,24.2,0,0,1,6.25-4.44,9.27,9.27,0,0,1,4-.92,6.05,6.05,0,0,1,2.23.46,5.2,5.2,0,0,1,1,.59,3.4,3.4,0,0,1,.47.38,3.82,3.82,0,0,1,.48.53l-.26-.27a2.56,2.56,0,0,1,.33.32l.19.26a3.22,3.22,0,0,1,.29.5,5.06,5.06,0,0,1,.37,1,7.8,7.8,0,0,1,.29,1.87,16.79,16.79,0,0,1-.24,3.5c-.21,1.11-.48,2.25-.78,3.28l-.89,3.12,0,.14,0,.1a8.74,8.74,0,0,1-.69,1c-.22.3-.46.58-.7.85-.49.54-1,1-1.53,1.52a30.67,30.67,0,0,1-3.34,2.61l.16-.13c-.74.69-1.46,1.33-2.22,2s-1.54,1.25-2.36,1.84a16.76,16.76,0,0,1-2.69,1.6,5.1,5.1,0,0,1-1.85.48A2.4,2.4,0,0,1,82,167.5a2.31,2.31,0,0,1-.91-1.2h0l.23.4a1.7,1.7,0,0,1-.35-.71,2,2,0,0,1-.09-.45,3.13,3.13,0,0,1,0-.75,6.49,6.49,0,0,1,.24-1.24,8.74,8.74,0,0,1,.39-1.09c.14-.35.3-.68.47-1a24,24,0,0,1,2.3-3.63c.42-.57.85-1.12,1.31-1.65s.91-1.07,1.39-1.58A37.78,37.78,0,0,1,90,151.68Z"/><path class="cls-3" d="M89.48,145.85a46.69,46.69,0,0,1-1.5,4.64c-.28.75-.52,1.49-.74,2.24a7.87,7.87,0,0,0-.38,2.35,3.84,3.84,0,0,1-.56-2.5,8.78,8.78,0,0,1,.53-2.5,11.77,11.77,0,0,1,1.09-2.26A8.91,8.91,0,0,1,89.48,145.85Z"/><path class="cls-4" d="M64.51,190.17s15,12.23,32.4,1.82a4.85,4.85,0,0,0,2.17-2.81c1.08-3.76,4-12.92,8.94-19.21a1,1,0,0,0-.42-1.54c-2.4-1-8.36-1.27-14.89,15.26"/><path class="cls-3" d="M64.51,190.17c3.38,1.33,6.51,2.55,9.75,3.55a26.43,26.43,0,0,0,10,1.1,28.6,28.6,0,0,0,9.64-2.72l2.25-1.17a3.5,3.5,0,0,0,1.39-1.36,3.42,3.42,0,0,0,.21-.43c.06-.16.1-.27.17-.51l.39-1.29c.27-.85.55-1.7.84-2.54a66.26,66.26,0,0,1,4.34-9.84,44.11,44.11,0,0,1,2.89-4.59l.81-1.06s0,.08,0,.08a0,0,0,0,0,0,0h0l-.13,0a2.16,2.16,0,0,0-.49-.16,4.61,4.61,0,0,0-1-.12,6.81,6.81,0,0,0-4.13,1.84,21.28,21.28,0,0,0-3.29,3.81c-2,2.84-3.22,6.07-5.41,9,.43-3.63,2.13-6.83,4-9.9a22.75,22.75,0,0,1,3.48-4.27c.37-.3.71-.63,1.11-.9a7.86,7.86,0,0,1,1.25-.76,6.85,6.85,0,0,1,2.92-.82,6.09,6.09,0,0,1,2.35.35l.19.07a2.64,2.64,0,0,1,.29.15,2.08,2.08,0,0,1,.51.43,2.06,2.06,0,0,1,.09,2.54l-.76,1.06a42.32,42.32,0,0,0-2.62,4.41,69.29,69.29,0,0,0-4,9.58c-.28.82-.55,1.64-.8,2.47l-.37,1.25a7.73,7.73,0,0,1-.24.74,7.51,7.51,0,0,1-.36.76,6.13,6.13,0,0,1-2.31,2.32L95,194.46a28.35,28.35,0,0,1-21.48,1.6,20.92,20.92,0,0,1-5-2.28A14.77,14.77,0,0,1,64.51,190.17Z"/><path class="cls-3" d="M87.45,188a7.91,7.91,0,0,1,.5-2.63,8.73,8.73,0,0,1,1.25-2.4,6.18,6.18,0,0,1,2.07-1.86,3.83,3.83,0,0,1,2.7-.39,6.72,6.72,0,0,0-2.18,1.19,10.16,10.16,0,0,0-1.61,1.78C89.2,185,88.41,186.45,87.45,188Z"/><path class="cls-3" d="M79.5,180.52a6.48,6.48,0,0,1,2.43-1.9,7.41,7.41,0,0,1,3.08-.73,6.73,6.73,0,0,1,3.1.65,7.1,7.1,0,0,1,2.46,1.86,24.19,24.19,0,0,0-2.78-1,14,14,0,0,0-1.38-.27,10.62,10.62,0,0,0-1.38-.06A13.84,13.84,0,0,0,79.5,180.52Z"/><path class="cls-3" d="M56.81,188.33a13.8,13.8,0,0,0,4.73.45,17.47,17.47,0,0,0,4.59-1c.72-.32,1.44-.63,2.14-1l2-1.21,1.86-1.45a6.52,6.52,0,0,0,.86-.8l.84-.83.84-.82.76-.92,1.5-1.83c.45-.65.89-1.32,1.33-2l.67-1a9.57,9.57,0,0,0,.64-1l1.17-2.09a21.48,21.48,0,0,0,1.16-2.1c.72-1.43,1.4-2.89,2.16-4.32-.5,1.53-1.08,3-1.62,4.57s-1.35,2.94-2,4.41a20.19,20.19,0,0,1-1.23,2.1c-.43.69-.85,1.39-1.3,2.07l-1.52,1.93-.77,1-.88.87-.88.86a9,9,0,0,1-.92.82l-2,1.49-2.16,1.21c-.76.34-1.54.62-2.31.91A14,14,0,0,1,56.81,188.33Z"/><path class="cls-3" d="M80.56,158.43a2.26,2.26,0,0,1,1-.61,3.16,3.16,0,0,1,1.14-.14,2.89,2.89,0,0,1,2.1,1,4.66,4.66,0,0,1-1.14.22,8.77,8.77,0,0,1-1,0,7.48,7.48,0,0,1-1-.14A4.84,4.84,0,0,1,80.56,158.43Z"/><path class="cls-3" d="M92.68,160.35a1.89,1.89,0,0,1,1-.24,2.63,2.63,0,0,1,.93.21,2.26,2.26,0,0,1,1.3,1.41,3.15,3.15,0,0,1-1,0,3.93,3.93,0,0,1-.8-.25,4.9,4.9,0,0,1-.73-.42A3.92,3.92,0,0,1,92.68,160.35Z"/><path class="cls-3" d="M152,161.34a5.79,5.79,0,0,1-1.47-.6,6.26,6.26,0,0,1-1.23-.85,6.87,6.87,0,0,1-1.73-2.27,6.51,6.51,0,0,0,2.17,1.59,6.22,6.22,0,0,0,1.22.4,4.25,4.25,0,0,0,1.19.11Z"/><path class="cls-3" d="M150.14,162.93a7.45,7.45,0,0,1-1.78-.62,8.64,8.64,0,0,1-2.78-2.18,8.93,8.93,0,0,1-1-1.41,9.22,9.22,0,0,0,1.23,1.12,7.64,7.64,0,0,0,1.4.82,7,7,0,0,0,1.51.5,6,6,0,0,0,1.47.15Z"/><path class="cls-3" d="M205.29,139.14a3.45,3.45,0,0,0,.64-.71,5,5,0,0,0,.49-.91,5.17,5.17,0,0,0,.4-2.12,5.59,5.59,0,0,1,.23,2.28,5.41,5.41,0,0,1-.24,1.17,4.94,4.94,0,0,1-.54,1.15Z"/><path class="cls-3" d="M206.91,139.37a5.17,5.17,0,0,0,.83-.85,6.53,6.53,0,0,0,.67-1.08,6.38,6.38,0,0,0,.62-2.54,6.71,6.71,0,0,1,0,2.75,6.83,6.83,0,0,1-.44,1.37,5.69,5.69,0,0,1-.78,1.29Z"/><path class="cls-6" d="M195.26,183.69A18.59,18.59,0,0,1,200,178.5c1.65-.7,4.38-1.31,5.34.75.33.71.48.94.23,1.67s-.79.82-1,1.5c-.37,1.21,1.27,2.17,1.37,3.3a4.2,4.2,0,0,1-.31,2.2,5.51,5.51,0,0,1-4.06,3A6.47,6.47,0,0,1,197,190C194.53,188.54,194.09,186.41,195.26,183.69Z"/><path class="cls-3" d="M199.5,176a3.18,3.18,0,0,0,2.57,1,8,8,0,0,1,3.06.12,2.38,2.38,0,0,1,1.41,1.06,3.38,3.38,0,0,1,.43,1.67,4.57,4.57,0,0,1-1.12,3.07l.05-.66a10.32,10.32,0,0,1,.79,1.35,8.1,8.1,0,0,1,.52,1.48,5.4,5.4,0,0,1,.14,1.61,3.9,3.9,0,0,1-.5,1.59l0-.06a4.88,4.88,0,0,1-.65,1,10.21,10.21,0,0,1-.77.83,12.69,12.69,0,0,1-1.73,1.39l0,0h0a5.4,5.4,0,0,0-.83.52,5.28,5.28,0,0,0-.75.67,4.45,4.45,0,0,0-1,1.79,4.09,4.09,0,0,1,.21-1,4.82,4.82,0,0,1,.49-1,6.24,6.24,0,0,1,.7-.84,5.46,5.46,0,0,1,.87-.68l0,0a16.25,16.25,0,0,0,1.52-1.47,8.4,8.4,0,0,0,.65-.8,5.35,5.35,0,0,0,.49-.82v0l0,0a3.5,3.5,0,0,0,.18-2.5,7.9,7.9,0,0,0-.47-1.28,9.19,9.19,0,0,0-.68-1.19l-.24-.35.29-.3a3.7,3.7,0,0,0,.85-2.36,2.33,2.33,0,0,0-.27-1.17,1.57,1.57,0,0,0-.88-.69,11,11,0,0,0-2.77-.53A3.23,3.23,0,0,1,199.5,176Z"/><path class="cls-3" d="M192.78,183.26a2.93,2.93,0,0,1,.29,1.48,3.88,3.88,0,0,1-.36,1.49,3.45,3.45,0,0,1-1,1.22,2.8,2.8,0,0,1-1.39.63c.28-.45.56-.79.78-1.17a7.26,7.26,0,0,0,.61-1.13C192.14,185,192.41,184.21,192.78,183.26Z"/><path class="cls-3" d="M199.77,177.76a4.67,4.67,0,0,0-1.81,1.1,10.34,10.34,0,0,0-1.34,1.59c-.84,1.15-1.55,2.42-2.5,3.63a8.36,8.36,0,0,1,.57-2.21,9.22,9.22,0,0,1,1.08-2,6.19,6.19,0,0,1,1.71-1.63A3,3,0,0,1,199.77,177.76Z"/><path class="cls-3" d="M193.48,186.05a9.67,9.67,0,0,0,2.55,3.73,5.62,5.62,0,0,0,1.9,1,9.49,9.49,0,0,0,1.11.29c.38.08.77.1,1.19.2a6.92,6.92,0,0,1-1.21.31,4.84,4.84,0,0,1-1.26,0,4.51,4.51,0,0,1-2.39-1,5.35,5.35,0,0,1-1.89-4.53Z"/><path class="cls-3" d="M202.42,182.48a5.32,5.32,0,0,1-4.23,2.57.11.11,0,0,0,0,.21,4.19,4.19,0,0,0,3.05.06.09.09,0,0,1,.07,0l.87.38a.12.12,0,0,0,.16-.06l.41-1.18.05-.06.76-.52a.11.11,0,0,0-.06-.2l-.7-.05a.11.11,0,0,1-.09-.16,1,1,0,0,0-.06-1A.11.11,0,0,0,202.42,182.48Z"/><path class="cls-7" d="M186.69,63.06a5.37,5.37,0,0,0-5.37-5.37,5.29,5.29,0,0,0-2.48.61v-.23a5.37,5.37,0,1,0-10.73,0,2,2,0,0,0,0,.25,5.37,5.37,0,1,0-4,9.9,5.37,5.37,0,1,0,9.33,5.32,5.37,5.37,0,1,0,9.33-5.32A5.35,5.35,0,0,0,186.69,63.06Zm-5.12,4.68a4.67,4.67,0,1,1-8.11,4.62,4.67,4.67,0,1,1-8.11-4.62,4.67,4.67,0,0,1,1.27-9.16,4.62,4.62,0,0,1,2.19.55v-.22a4.67,4.67,0,1,1,9.33,0v.2a4.6,4.6,0,0,1,2.16-.53,4.67,4.67,0,0,1,1.27,9.16Z"/><path class="cls-7" d="M173.46,67.9a3.4,3.4,0,1,1,3.4-3.4A3.4,3.4,0,0,1,173.46,67.9Zm0-5.59a2.19,2.19,0,1,0,2.19,2.19A2.19,2.19,0,0,0,173.46,62.31Z"/><path class="cls-7" d="M174.14,57.13a.68.68,0,1,0-.89.64v4.41h.42V57.77A.68.68,0,0,0,174.14,57.13Z"/><path class="cls-7" d="M174.52,59.14l-.4,3,.41.06.4-3a.69.69,0,0,0,.56-.58.68.68,0,1,0-1,.52Z"/><path class="cls-7" d="M172.4,59.14l.4,3-.41.06-.41-3a.69.69,0,0,1-.55-.58.68.68,0,0,1,.58-.76.69.69,0,0,1,.77.58A.67.67,0,0,1,172.4,59.14Z"/><path class="cls-7" d="M181.21,64.09a.67.67,0,0,0,.52-.8.68.68,0,0,0-1.34.07l-4.32.92.09.4,4.32-.91A.66.66,0,0,0,181.21,64.09Z"/><path class="cls-7" d="M179.32,64.89l-3,.22,0,.42,3-.23a.68.68,0,1,0,.57-.93A.66.66,0,0,0,179.32,64.89Z"/><path class="cls-7" d="M178.88,62.81l-2.83,1-.14-.39,2.83-1a.67.67,0,1,1,.14.39Z"/><path class="cls-7" d="M177.28,71.81a.68.68,0,0,0,1.14-.74.69.69,0,0,0-.75-.29l-2.4-3.7-.35.23,2.4,3.7A.69.69,0,0,0,177.28,71.81Z"/><path class="cls-7" d="M175.86,70.33l-1.28-2.71-.38.17,1.29,2.72a.67.67,0,1,0,.37-.18Z"/><path class="cls-7" d="M177.64,69.17l-1.95-2.27.31-.28,2,2.28a.67.67,0,1,1-.32.27Z"/><path class="cls-7" d="M169.57,71.81a.68.68,0,0,1-1.14-.74.69.69,0,0,1,.75-.29l2.4-3.7.35.23-2.4,3.7A.69.69,0,0,1,169.57,71.81Z"/><path class="cls-7" d="M171,70.33l1.28-2.71.38.17-1.29,2.72a.67.67,0,1,1-.37-.18Z"/><path class="cls-7" d="M169.21,69.17l1.95-2.27-.31-.28-2,2.28a.67.67,0,1,0,.32.27Z"/><path class="cls-7" d="M165.46,64.09a.67.67,0,1,1,.81-.73l4.32.92-.09.4-4.32-.91A.65.65,0,0,1,165.46,64.09Z"/><path class="cls-7" d="M167.35,64.89l3,.22,0,.42-3-.23a.66.66,0,0,1-.67.42.68.68,0,1,1,.1-1.35A.68.68,0,0,1,167.35,64.89Z"/><path class="cls-7" d="M167.79,62.81l2.82,1,.14-.39-2.82-1a.67.67,0,1,0-.14.39Z"/><path class="cls-7" d="M170,60.64l1.93,2.3-.32.27-1.93-2.3a.68.68,0,1,1,.26-1.06A.66.66,0,0,1,170,60.64Z"/><path class="cls-7" d="M177.08,60.74,175,62.9l-.3-.29,2.09-2.16a.67.67,0,0,1,.11-.79.68.68,0,0,1,1,0,.67.67,0,0,1,0,1A.66.66,0,0,1,177.08,60.74Z"/><path class="cls-7" d="M178.66,67.46,176,66.09l.19-.37,2.67,1.37a.68.68,0,0,1,1.09.79.69.69,0,0,1-.92.29A.68.68,0,0,1,178.66,67.46Z"/><path class="cls-7" d="M173.21,70.43l0-3h.41l0,3a.67.67,0,0,1,.46.65.68.68,0,0,1-.69.67.69.69,0,0,1-.67-.69A.7.7,0,0,1,173.21,70.43Z"/><path class="cls-7" d="M168.22,67.46l2.67-1.37-.19-.37L168,67.09a.68.68,0,1,0,.19.37Z"/><path class="cls-7" d="M111.08,103.86a5.37,5.37,0,0,0-7.85-4.76v-.23a5.37,5.37,0,1,0-10.73,0,2.18,2.18,0,0,0,0,.25,5.37,5.37,0,1,0-4,9.9,5.37,5.37,0,1,0,9.33,5.31,5.37,5.37,0,1,0,9.33-5.31A5.37,5.37,0,0,0,111.08,103.86ZM106,108.53a4.67,4.67,0,1,1-8.11,4.62,4.67,4.67,0,1,1-8.11-4.62A4.66,4.66,0,0,1,91,99.38a4.73,4.73,0,0,1,2.19.54v-.21a4.67,4.67,0,1,1,9.33,0v.2a4.6,4.6,0,0,1,2.16-.53,4.66,4.66,0,0,1,1.27,9.15Z"/><path class="cls-7" d="M97.85,108.7a3.41,3.41,0,1,1,3.4-3.41A3.41,3.41,0,0,1,97.85,108.7Zm0-5.6a2.2,2.2,0,1,0,2.19,2.19A2.19,2.19,0,0,0,97.85,103.1Z"/><path class="cls-7" d="M98.53,97.92a.68.68,0,1,0-1.36,0,.69.69,0,0,0,.47.65V103h.42V98.57A.69.69,0,0,0,98.53,97.92Z"/><path class="cls-7" d="M98.91,99.94l-.4,3,.41,0,.41-3a.68.68,0,1,0-.8-.76A.69.69,0,0,0,98.91,99.94Z"/><path class="cls-7" d="M96.79,99.94l.4,3-.41,0-.41-3a.68.68,0,1,1,.8-.76A.69.69,0,0,1,96.79,99.94Z"/><path class="cls-7" d="M105.6,104.89a.68.68,0,0,0-.28-1.33.69.69,0,0,0-.54.6l-4.32.91.09.41,4.32-.92A.68.68,0,0,0,105.6,104.89Z"/><path class="cls-7" d="M103.71,105.68l-3,.23,0,.41,3-.22a.69.69,0,0,0,.68.42.68.68,0,0,0,.62-.73.67.67,0,0,0-.72-.62A.65.65,0,0,0,103.71,105.68Z"/><path class="cls-7" d="M103.27,103.6l-2.83,1-.14-.4,2.83-1a.68.68,0,1,1,.9.62A.67.67,0,0,1,103.27,103.6Z"/><path class="cls-7" d="M101.67,112.6a.68.68,0,1,0,.39-1l-2.4-3.7-.35.23,2.4,3.7A.68.68,0,0,0,101.67,112.6Z"/><path class="cls-7" d="M100.25,111.12,99,108.41l-.38.18,1.29,2.71a.67.67,0,1,0,.37-.18Z"/><path class="cls-7" d="M102,110l-2-2.28.31-.27,2,2.27a.69.69,0,0,1,.78.19.68.68,0,1,1-1.1.09Z"/><path class="cls-7" d="M94,112.6a.68.68,0,0,1-.94.2.68.68,0,0,1,.55-1.22l2.4-3.7.35.23-2.4,3.7A.68.68,0,0,1,94,112.6Z"/><path class="cls-7" d="M95.38,111.12l1.28-2.71.38.18-1.29,2.71a.67.67,0,1,1-.37-.18Z"/><path class="cls-7" d="M93.6,110l2-2.28-.32-.27-2,2.27a.69.69,0,0,0-.78.19.68.68,0,1,0,1.1.09Z"/><path class="cls-7" d="M89.85,104.89a.68.68,0,1,1,.81-.73l4.32.91-.09.41-4.32-.92A.67.67,0,0,1,89.85,104.89Z"/><path class="cls-7" d="M91.74,105.68l3,.23,0,.41-3-.22a.69.69,0,0,1-.68.42.68.68,0,0,1-.63-.73.68.68,0,0,1,1.34-.11Z"/><path class="cls-7" d="M92.18,103.6l2.82,1,.14-.4-2.82-1a.68.68,0,1,0-.14.39Z"/><path class="cls-7" d="M94.38,101.44l1.93,2.29L96,104l-1.93-2.29a.68.68,0,1,1,.32-.27Z"/><path class="cls-7" d="M101.47,101.54l-2.09,2.16-.3-.29,2.09-2.16a.67.67,0,0,1,.11-.79.68.68,0,0,1,1,0,.68.68,0,0,1-.77,1.1Z"/><path class="cls-7" d="M103.05,108.26l-2.67-1.37.19-.37,2.67,1.37a.68.68,0,1,1-.19.37Z"/><path class="cls-7" d="M97.6,111.23l0-3h.41l0,3a.68.68,0,0,1,.46.65.68.68,0,1,1-.88-.65Z"/><path class="cls-7" d="M92.61,108.26l2.67-1.37-.19-.37-2.67,1.37a.67.67,0,0,0-1.08.78.67.67,0,0,0,.91.3A.69.69,0,0,0,92.61,108.26Z"/><path class="cls-8" d="M146.68,241.44a3.81,3.81,0,0,1-.74-.08,3.64,3.64,0,0,1-.71-.22,4.48,4.48,0,0,1-.65-.34,3.37,3.37,0,0,1-.58-.48,4.32,4.32,0,0,1-.47-.57,3.48,3.48,0,0,1-.35-.66,2.78,2.78,0,0,1-.21-.71,3.05,3.05,0,0,1-.08-.74,3.16,3.16,0,0,1,.08-.74,3,3,0,0,1,.21-.71,3.48,3.48,0,0,1,.35-.66A3.75,3.75,0,0,1,144,235a3.83,3.83,0,0,1,3.43-1,4.33,4.33,0,0,1,.7.21,5.25,5.25,0,0,1,.66.36,3.62,3.62,0,0,1,.58.47,3.83,3.83,0,0,1,1.11,2.68,3.65,3.65,0,0,1-.08.74,3.26,3.26,0,0,1-.22.71,4.12,4.12,0,0,1-.34.66,5.28,5.28,0,0,1-.47.57,4.34,4.34,0,0,1-.58.48,4.12,4.12,0,0,1-.66.34,3.55,3.55,0,0,1-.7.22A3.82,3.82,0,0,1,146.68,241.44Z"/><path class="cls-3" d="M146.68,242.42a5,5,0,0,1-.94-.1,4.84,4.84,0,0,1-.91-.28,5.51,5.51,0,0,1-.78-.42,3.75,3.75,0,0,1-.76-.62,4.49,4.49,0,0,1-.58-.71,4.36,4.36,0,0,1-.44-.83,4.08,4.08,0,0,1-.27-.91,4.32,4.32,0,0,1-.09-.91,4.17,4.17,0,0,1,.1-.94,4,4,0,0,1,.26-.88,4.3,4.3,0,0,1,.46-.85,3.88,3.88,0,0,1,.6-.72,4.76,4.76,0,0,1,4.29-1.29,4.36,4.36,0,0,1,.88.27,5.75,5.75,0,0,1,.82.43,4.82,4.82,0,0,1,2.14,4,4.23,4.23,0,0,1-.1.94,4.7,4.7,0,0,1-.27.88,4.62,4.62,0,0,1-.43.82,5.75,5.75,0,0,1-.6.74,5.63,5.63,0,0,1-.72.59,4.87,4.87,0,0,1-.84.44,4.29,4.29,0,0,1-.87.27A5,5,0,0,1,146.68,242.42Zm0-7.59a2.82,2.82,0,0,0-2,.82,2.46,2.46,0,0,0-.34.41,2.76,2.76,0,0,0-.28.5,3.15,3.15,0,0,0-.15.51,2.91,2.91,0,0,0-.06.57,3.1,3.1,0,0,0,0,.54,3.35,3.35,0,0,0,.16.54,2.77,2.77,0,0,0,.26.48,2.42,2.42,0,0,0,.36.43,2.07,2.07,0,0,0,.4.34,4.18,4.18,0,0,0,.5.27,2.88,2.88,0,0,0,1.63.16,2.3,2.3,0,0,0,.5-.15,3,3,0,0,0,.53-.28,2.46,2.46,0,0,0,.41-.34,2.69,2.69,0,0,0,.37-.45,4,4,0,0,0,.24-.46,2.76,2.76,0,0,0,.16-.54,2.42,2.42,0,0,0,.06-.54,2.87,2.87,0,0,0-1.25-2.34c-.16-.09-.33-.19-.51-.27a3,3,0,0,0-.49-.14A2.6,2.6,0,0,0,146.69,234.83Z"/><path class="cls-8" d="M178.67,251.27a3.8,3.8,0,0,1,3.51-4.06h0a3.8,3.8,0,0,1,4.06,3.51h0a3.8,3.8,0,0,1-3.51,4.06h-.28A3.8,3.8,0,0,1,178.67,251.27Zm-4.51,3.23a3.8,3.8,0,0,1-3.27-4.27h0a3.8,3.8,0,0,1,4.27-3.25h0a3.79,3.79,0,0,1,3.25,4.26h0a3.78,3.78,0,0,1-3.75,3.29h0A4.07,4.07,0,0,1,174.16,254.5Zm12.34-3.82a3.79,3.79,0,0,1,2.51-4.74h0a3.79,3.79,0,0,1,4.74,2.51h0a3.79,3.79,0,0,1-2.51,4.74h0a3.9,3.9,0,0,1-1.12.17h0A3.8,3.8,0,0,1,186.5,250.68Zm-20.61,1.95a3.79,3.79,0,0,1-2.47-4.76h0a3.8,3.8,0,0,1,4.77-2.47h0a3.8,3.8,0,0,1,2.47,4.76h0a3.82,3.82,0,0,1-3.62,2.65h0A3.83,3.83,0,0,1,165.89,252.63Zm28.1-4.3a3.78,3.78,0,0,1,1.43-5.17h0a3.79,3.79,0,0,1,5.17,1.42h0a3.79,3.79,0,0,1-1.43,5.17h0a3.75,3.75,0,0,1-1.87.5h0A3.78,3.78,0,0,1,194,248.33Zm-35.86,1.2a3.81,3.81,0,0,1-1.77-5.07h0a3.81,3.81,0,0,1,5.07-1.77h0a3.81,3.81,0,0,1,1.77,5.07h0a3.8,3.8,0,0,1-3.42,2.15h0A3.75,3.75,0,0,1,158.13,249.53Zm-7.22-4.05h0a3.81,3.81,0,0,1-1.14-5.25h0A3.79,3.79,0,0,1,155,239.1h0a3.79,3.79,0,0,1,1.13,5.25h0a3.78,3.78,0,0,1-3.19,1.73h0A3.76,3.76,0,0,1,150.91,245.48Z"/><path class="cls-3" d="M182.45,255.77a4.77,4.77,0,0,1-4-2.16,4.78,4.78,0,0,1-8.23-1.05,4.82,4.82,0,0,1-4.64,1h0a4.78,4.78,0,0,1-3.21-3.46,4.78,4.78,0,0,1-7.36-3.52,4.85,4.85,0,0,1-4.65-.29,4.77,4.77,0,0,1,5.09-8.07l.08.05a4.76,4.76,0,0,1,2.08,3,5.07,5.07,0,0,1,.09.54,4.75,4.75,0,0,1,6.7,3.2,4.8,4.8,0,0,1,4.06-.55,4.73,4.73,0,0,1,2.8,2.35c.06.12.12.25.17.38a4.78,4.78,0,0,1,7,.64l.2.28a4.77,4.77,0,0,1,7.13-.54c0-.09.09-.17.13-.26a4.78,4.78,0,0,1,6.44-2,2.2,2.2,0,0,1,.26.15c0-.1,0-.2.07-.29a4.76,4.76,0,0,1,2.26-2.9l.11-.05a4.77,4.77,0,0,1,4.58,8.36,4.84,4.84,0,0,1-4.83-.08,4.62,4.62,0,0,1-.46,1.27,4.72,4.72,0,0,1-2.81,2.33,4.78,4.78,0,0,1-4.74-1.15,4.78,4.78,0,0,1-4,2.78Zm0-7.59h-.21a2.82,2.82,0,0,0-2.6,3h0a2.83,2.83,0,0,0,2.8,2.61h.28a2.82,2.82,0,0,0-.27-5.63Zm-7.81-.26a2.82,2.82,0,0,0-.36,5.61h0A2.81,2.81,0,0,0,175,248,2.43,2.43,0,0,0,174.65,247.92Zm15.49-1.17a2.86,2.86,0,0,0-2.5,1.49,2.82,2.82,0,0,0-.2,2.15h0a2.8,2.8,0,0,0,3.52,1.86,2.81,2.81,0,0,0,1.85-3.51,2.78,2.78,0,0,0-2.67-2Zm-23.95,4.95a2.82,2.82,0,1,0-1.83-3.53A2.82,2.82,0,0,0,166.19,251.7Zm29.62-7.64a2.82,2.82,0,0,0-1,3.79h0a2.83,2.83,0,0,0,2.45,1.43,2.84,2.84,0,0,0,2.71-2.06,2.8,2.8,0,0,0-2-3.47,2.75,2.75,0,0,0-2.12.27Zm-36-.76a2.82,2.82,0,0,0-1.23,5.35h0a2.63,2.63,0,0,0,1.21.28,2.85,2.85,0,0,0,2.54-1.6,2.81,2.81,0,0,0-1.32-3.75A2.75,2.75,0,0,0,159.79,243.3ZM153,239.47a2.46,2.46,0,0,0-.6.07,2.77,2.77,0,0,0-1.78,1.22,2.82,2.82,0,0,0-.38,2.12,2.78,2.78,0,0,0,1.23,1.77h0a2.82,2.82,0,0,0,3.12-4.69l-.08-.05A2.83,2.83,0,0,0,153,239.47Z"/><path class="cls-8" d="M203.68,245.76a3.78,3.78,0,0,1-.74-.07,4.83,4.83,0,0,1-.71-.22,4.55,4.55,0,0,1-.65-.35,3.23,3.23,0,0,1-.58-.47,4.18,4.18,0,0,1-.47-.57,5.19,5.19,0,0,1-.35-.66,4.48,4.48,0,0,1-.22-.71,3.71,3.71,0,0,1-.07-.74,3.64,3.64,0,0,1,.07-.74,4.18,4.18,0,0,1,.22-.71,4.12,4.12,0,0,1,.35-.66,3.73,3.73,0,0,1,.47-.58,4.41,4.41,0,0,1,.58-.47,3.73,3.73,0,0,1,.65-.35,4.83,4.83,0,0,1,.71-.22,4.15,4.15,0,0,1,1.49,0,4.07,4.07,0,0,1,.7.22,3,3,0,0,1,.66.35,3.84,3.84,0,0,1,.58.47,4.41,4.41,0,0,1,.47.58,3,3,0,0,1,.35.66,3.42,3.42,0,0,1,.21.71,3.65,3.65,0,0,1,.08.74,3.72,3.72,0,0,1-.08.74,3.61,3.61,0,0,1-.21.71,4.17,4.17,0,0,1-.35.66,4.26,4.26,0,0,1-.48.57A3.75,3.75,0,0,1,203.68,245.76Z"/><path class="cls-3" d="M203.68,246.74a5,5,0,0,1-.94-.09,5.3,5.3,0,0,1-.88-.28,5.22,5.22,0,0,1-.81-.42,4.37,4.37,0,0,1-.74-.61,4.52,4.52,0,0,1-.59-.72,5.19,5.19,0,0,1-.44-.83,4.07,4.07,0,0,1-.27-.87,4.45,4.45,0,0,1-.1-.95,4.23,4.23,0,0,1,.1-.94,4.42,4.42,0,0,1,.28-.91,3.87,3.87,0,0,1,.42-.8,4.47,4.47,0,0,1,.6-.73,5.11,5.11,0,0,1,.7-.58,5.17,5.17,0,0,1,.85-.46,6.73,6.73,0,0,1,.87-.27,5,5,0,0,1,1.88,0,4.57,4.57,0,0,1,.89.27,3.89,3.89,0,0,1,.83.44,5.54,5.54,0,0,1,.72.58,5.33,5.33,0,0,1,.61.76,4,4,0,0,1,.44.83,3.85,3.85,0,0,1,.27.9,4.46,4.46,0,0,1,.09.91,4.36,4.36,0,0,1-.1.94,5,5,0,0,1-.26.88,5.42,5.42,0,0,1-.45.84,4.94,4.94,0,0,1-.59.71A4.77,4.77,0,0,1,203.68,246.74Zm0-7.59a3.66,3.66,0,0,0-.57,0,5.19,5.19,0,0,0-.52.17,2.67,2.67,0,0,0-.5.26,4.08,4.08,0,0,0-.42.36,3.19,3.19,0,0,0-.33.4,2.52,2.52,0,0,0-.25.49,2.77,2.77,0,0,0-.18,1.63,3.45,3.45,0,0,0,.16.51,3,3,0,0,0,.28.53,2.37,2.37,0,0,0,.34.41,2.79,2.79,0,0,0,.42.35,3.13,3.13,0,0,0,.48.25,3.86,3.86,0,0,0,.55.17,3,3,0,0,0,.53.05,2.82,2.82,0,0,0,2-.82,2.75,2.75,0,0,0,.35-.43,2.39,2.39,0,0,0,.27-.51,2.06,2.06,0,0,0,.15-.48,3,3,0,0,0,.06-.57,2.64,2.64,0,0,0-.06-.55,2.14,2.14,0,0,0-.16-.53,1.81,1.81,0,0,0-.24-.46,3.48,3.48,0,0,0-.38-.48,3.85,3.85,0,0,0-.42-.33,2.34,2.34,0,0,0-.47-.25,3.14,3.14,0,0,0-.55-.17A3.07,3.07,0,0,0,203.69,239.15Z"/><path class="cls-5" d="M114.36,241.46q.12-.68.21-1.35c1.3-10.09-11.8-9.56-15.3-.9-2.12,5.26-1.41,11.14-.8,16,2.13,16.72,8.46,32.8,16.73,44.46,8.11,11.42,17.22,21.26,20.14,37.72-.42-2.37.11-6.07,0-8.66-.1-3.72-.31-7.42-.62-11.06a117.49,117.49,0,0,0-5-26.46c-2.32-7-5.65-13.5-10.59-17.58-2.39-2-4.61-3.71-6.19-6.88a21.37,21.37,0,0,1-1.89-11.89C111.66,250.33,113.55,245.93,114.36,241.46Z"/><path class="cls-3" d="M134.14,337.56h0c-2.39-13.48-8.95-22.33-15.89-31.7-1.33-1.79-2.71-3.65-4-5.53-8.69-12.23-14.87-28.64-16.94-45-.59-4.62-1.39-11,.88-16.57,2.33-5.8,8.38-8.19,12.62-7.08,2.86.74,5.68,3.39,5,8.59-.06.47-.14.94-.22,1.41a59.66,59.66,0,0,1-1.52,6,46.4,46.4,0,0,0-1.69,7.3,20.08,20.08,0,0,0,1.77,11.2c1.39,2.78,3.3,4.36,5.52,6.18l.36.3c4.59,3.8,8.18,9.73,11,18.14a116.83,116.83,0,0,1,5,26.73c.31,3.63.52,7.38.62,11.14,0,1,0,2.19-.1,3.41a24.83,24.83,0,0,0,0,5.07ZM108.62,233.84a9.25,9.25,0,0,0-8.22,5.83c-2,5-1.3,10.75-.72,15.35,2,16,8,32,16.52,43.9,1.31,1.86,2.68,3.71,4,5.49,5.23,7.07,10.61,14.32,13.94,23.69-.11-3.5-.31-7-.6-10.37a114.25,114.25,0,0,0-4.9-26.17c-2.6-7.85-6-13.58-10.21-17l-.35-.3c-2.33-1.92-4.53-3.73-6.15-7a22.51,22.51,0,0,1-2-12.58A48.5,48.5,0,0,1,111.7,247a56.8,56.8,0,0,0,1.46-5.74h0c.08-.43.15-.86.2-1.29.41-3.18-.73-5.28-3.21-5.93A6.35,6.35,0,0,0,108.62,233.84Z"/><ellipse class="cls-9" cx="166.57" cy="175.96" rx="7.88" ry="4.53" transform="translate(-54.31 76.37) rotate(-22.3)"/><ellipse class="cls-9" cx="207.75" cy="158.66" rx="7.48" ry="4.31" transform="translate(-44.67 90.71) rotate(-22.3)"/></g></svg>